<svg width="78" height="20" viewBox="0 0 78 20" fill="none" xmlns="http://www.w3.org/2000/svg">
<path d="M7.872 19C7.584 19 7.336 18.904 7.128 18.712C6.936 18.504 6.84 18.256 6.84 17.968V0.256H8.904V17.968C8.904 18.256 8.808 18.504 8.616 18.712C8.424 18.904 8.176 19 7.872 19ZM1.32 2.152C1.032 2.152 0.8 2.064 0.624 1.888C0.448 1.696 0.36 1.472 0.36 1.216C0.36 0.927999 0.448 0.695999 0.624 0.519999C0.8 0.343999 1.032 0.256 1.32 0.256H14.448C14.736 0.256 14.968 0.343999 15.144 0.519999C15.32 0.695999 15.408 0.927999 15.408 1.216C15.408 1.472 15.32 1.696 15.144 1.888C14.968 2.064 14.736 2.152 14.448 2.152H1.32ZM15.3156 19C14.9156 19 14.6196 18.84 14.4276 18.52C14.2516 18.184 14.2356 17.848 14.3796 17.512L21.3396 0.951999C21.5476 0.487999 21.8836 0.256 22.3476 0.256C22.8116 0.256 23.1316 0.487999 23.3076 0.951999L30.2916 17.536C30.4516 17.888 30.4276 18.224 30.2196 18.544C30.0276 18.848 29.7476 19 29.3796 19C29.1716 19 28.9796 18.944 28.8036 18.832C28.6276 18.72 28.4916 18.568 28.3956 18.376L22.0116 2.728H22.7316L16.2516 18.376C16.1716 18.584 16.0436 18.744 15.8676 18.856C15.6916 18.952 15.5076 19 15.3156 19ZM16.8036 14.632L17.5956 12.88H27.2196L28.0356 14.632H16.8036ZM38.9346 19.24C37.9106 19.24 36.9506 19.088 36.0546 18.784C35.1746 18.48 34.4066 18.056 33.7506 17.512C33.0946 16.952 32.6066 16.304 32.2866 15.568C32.1426 15.296 32.1346 15.04 32.2626 14.8C32.4066 14.56 32.6386 14.4 32.9586 14.32C33.1986 14.256 33.4386 14.288 33.6786 14.416C33.9186 14.528 34.0946 14.712 34.2066 14.968C34.4466 15.416 34.7906 15.824 35.2386 16.192C35.7026 16.544 36.2466 16.824 36.8706 17.032C37.5106 17.224 38.1986 17.32 38.9346 17.32C39.7666 17.32 40.5106 17.184 41.1666 16.912C41.8226 16.64 42.3426 16.248 42.7266 15.736C43.1106 15.224 43.3026 14.6 43.3026 13.864C43.3026 12.936 42.9506 12.128 42.2466 11.44C41.5426 10.736 40.4226 10.296 38.8866 10.12C36.9826 9.896 35.4866 9.312 34.3986 8.368C33.3266 7.424 32.7906 6.256 32.7906 4.864C32.7906 3.872 33.0626 3.016 33.6066 2.296C34.1506 1.56 34.8946 0.999999 35.8386 0.615999C36.7826 0.216 37.8546 0.0159998 39.0546 0.0159998C39.9666 0.0159998 40.7826 0.159999 41.5026 0.447999C42.2226 0.719999 42.8466 1.088 43.3746 1.552C43.9186 2.016 44.3666 2.536 44.7186 3.112C44.9106 3.4 44.9746 3.68 44.9106 3.952C44.8626 4.208 44.7186 4.408 44.4786 4.552C44.2226 4.68 43.9506 4.704 43.6626 4.624C43.3906 4.528 43.1826 4.352 43.0386 4.096C42.7986 3.712 42.4946 3.36 42.1266 3.04C41.7746 2.704 41.3426 2.44 40.8306 2.248C40.3186 2.056 39.7106 1.952 39.0066 1.936C37.7746 1.936 36.7666 2.192 35.9826 2.704C35.1986 3.216 34.8066 3.976 34.8066 4.984C34.8066 5.496 34.9426 5.984 35.2146 6.448C35.5026 6.896 35.9746 7.28 36.6306 7.6C37.3026 7.92 38.2146 8.16 39.3666 8.32C41.3506 8.576 42.8386 9.176 43.8306 10.12C44.8226 11.064 45.3186 12.304 45.3186 13.84C45.3186 14.72 45.1506 15.496 44.8146 16.168C44.4946 16.84 44.0386 17.408 43.4466 17.872C42.8546 18.32 42.1666 18.664 41.3826 18.904C40.6146 19.128 39.7986 19.24 38.9346 19.24ZM50.2367 19C49.9487 19 49.7007 18.904 49.4927 18.712C49.3007 18.504 49.2047 18.256 49.2047 17.968V1.288C49.2047 0.999999 49.3007 0.759999 49.4927 0.568C49.7007 0.36 49.9487 0.256 50.2367 0.256C50.5247 0.256 50.7647 0.36 50.9567 0.568C51.1647 0.759999 51.2687 0.999999 51.2687 1.288V9.16L59.7887 0.639999C59.9327 0.495999 60.0687 0.399999 60.1967 0.352C60.3247 0.288 60.4607 0.256 60.6047 0.256C60.9247 0.256 61.1647 0.351999 61.3247 0.543999C61.4847 0.735999 61.5487 0.975999 61.5167 1.264C61.5007 1.536 61.3887 1.784 61.1807 2.008L54.7487 8.464L61.2527 17.368C61.4127 17.592 61.4767 17.832 61.4447 18.088C61.4287 18.344 61.3327 18.56 61.1567 18.736C60.9967 18.912 60.7887 19 60.5327 19C60.1487 19 59.8607 18.848 59.6687 18.544L53.2847 9.904L51.2687 11.944V17.968C51.2687 18.256 51.1647 18.504 50.9567 18.712C50.7647 18.904 50.5247 19 50.2367 19ZM66.057 19C65.753 19 65.505 18.904 65.313 18.712C65.121 18.52 65.025 18.272 65.025 17.968V1.288C65.025 0.983999 65.121 0.735999 65.313 0.543999C65.505 0.351999 65.753 0.256 66.057 0.256H70.497C71.665 0.256 72.705 0.503999 73.617 0.999999C74.545 1.496 75.265 2.184 75.777 3.064C76.305 3.928 76.569 4.936 76.569 6.088C76.569 7.176 76.305 8.144 75.777 8.992C75.265 9.84 74.545 10.504 73.617 10.984C72.705 11.464 71.665 11.704 70.497 11.704H67.089V17.968C67.089 18.272 66.993 18.52 66.801 18.712C66.609 18.904 66.361 19 66.057 19ZM76.065 19C75.857 19 75.681 18.96 75.537 18.88C75.393 18.784 75.273 18.648 75.177 18.472L70.641 11.248L72.681 10.72L76.881 17.416C77.137 17.816 77.177 18.184 77.001 18.52C76.841 18.84 76.529 19 76.065 19ZM67.089 9.736H70.497C71.281 9.736 71.977 9.584 72.585 9.28C73.209 8.96 73.697 8.528 74.049 7.984C74.401 7.424 74.577 6.792 74.577 6.088C74.577 5.32 74.401 4.648 74.049 4.072C73.697 3.48 73.209 3.024 72.585 2.704C71.977 2.368 71.281 2.2 70.497 2.2H67.089V9.736Z" fill="url(#paint0_linear_302_9)"/>
<defs>
<linearGradient id="paint0_linear_302_9" x1="0" y1="25" x2="78" y2="25" gradientUnits="userSpaceOnUse">
<stop stop-color="#005283"/>
<stop offset="1" stop-color="#0BC3E9"/>
</linearGradient>
</defs>
</svg>
